<svg xmlns="http://www.w3.org/2000/svg" viewBox="0 0 64 64" role="img" aria-label="Whale favicon">
  <defs>
    <linearGradient id="sea" x1="0" y1="0" x2="1" y2="1">
      <stop offset="0%" stop-color="#0f5c7a" />
      <stop offset="100%" stop-color="#1f8bb3" />
    </linearGradient>
  </defs>
  <rect width="64" height="64" rx="14" fill="#e9f7ff" />
  <path d="M48 19c-4.8 1.1-7.5 4.4-9 7.1-3-1.4-6.3-2.1-10-2.1-10.7 0-18.2 6.4-18.2 13.9 0 6.7 5.6 12.1 14.1 12.1 3.7 0 6.7-.9 9.2-2.5 1.6 1.2 3.7 1.9 6.1 1.9 5.2 0 9.4-3.1 9.4-6.9 0-1.8-.9-3.4-2.4-4.7 1.7-1.5 2.7-3.4 2.7-5.5 0-1.8-.8-3.4-2.1-4.8 2.3-2.2 3.6-5.2 3.8-8.6-.9.7-2.2 1.2-3.6 1.3zm-25 16.8a2.8 2.8 0 1 1 0-5.6 2.8 2.8 0 0 1 0 5.6z" fill="url(#sea)"/>
  <circle cx="22.8" cy="33" r="1.2" fill="#ffffff" />
  <path d="M13.5 44.5c6.5 3.9 17.4 4.4 24.2 1.3" fill="none" stroke="#0b4a62" stroke-width="2.4" stroke-linecap="round"/>
  <path d="M42.5 17.8c1.7 3.1 4.2 5.5 7.5 7.1-1.4.6-2.6 1.7-3.5 3-1.8-2.5-3.3-6-4-10.1z" fill="#0b4a62"/>
</svg>
